<svg id="Layer_7" data-name="Layer 7" xmlns="http://www.w3.org/2000/svg" viewBox="0 0 500 500"><defs><style>.cls-1{fill:#35a6ff;}.cls-2{fill:#cfd12c;}.cls-3{opacity:0.41;}.cls-4{fill:#e6e6e6;}</style></defs><path class="cls-1" d="M421.36,370.94a18.85,18.85,0,0,1,18.84-32.65L500,372.82V268.75c-.61.06-1.22.1-1.85.1h-39.3a18.85,18.85,0,0,1-18.73-16.74l-40.15.13A150,150,0,1,1,149.15,139l-63-.2a18.84,18.84,0,0,1-.58,17.75h0a18.85,18.85,0,0,1-25.75,6.9L16.71,138.54,0,138.48v90.67H40.65A18.85,18.85,0,0,1,59.5,248h0a18.85,18.85,0,0,1-18.85,18.85H0V333a59.79,59.79,0,0,1,37.07,13.28l20.41-11.78a18.85,18.85,0,0,1,25.75,6.89h0a18.86,18.86,0,0,1-6.9,25.75l-10.8,6.23c24.54,3.38,42.91,17.43,42.91,34.29l0,0c4.89-4.05,12.43-6.63,20.87-6.63,19.45,0,35.2,10,35.32,22.3a31.71,31.71,0,0,1,15.85-4c19.11,0,35,11.73,38.29,27.24l.64-.15a117.41,117.41,0,0,1,16.25,1.11,18.84,18.84,0,0,1,33.16,12.25v.48c3.92,3.5,6.15,7.46,6.15,11.67h-.06c0,.33.06.66.06,1l-6.15,0v27H376.23l-35.77-62a18.84,18.84,0,0,1,6.89-25.74h0a18.84,18.84,0,0,1,25.75,6.9L419.75,500H500V416.34Z"/><polygon class="cls-1" points="143.72 472.39 127.78 500 231.16 500 231.16 472.8 143.72 472.39"/><polygon class="cls-1" points="0 471.73 0 500 84.26 500 100.32 472.19 0 471.73"/><path class="cls-1" d="M47.51,55.43l-.07.23C62,58.71,72.49,67,72.51,76.73A53.19,53.19,0,0,1,85,75.32c27.33,0,49.54,10,50,22.35a52.82,52.82,0,0,1,12.52-1.42c18.6,0,34.81,6.38,43.43,15.83a150.13,150.13,0,0,1,193.13,70.6c4.36-9.77,17.28-18.21,35.24-23.78A19,19,0,0,1,414,153h0a18.85,18.85,0,0,1,6.9-25.74L500,81.58V0H412.45L368.73,75.72a18.85,18.85,0,1,1-32.64-18.85L368.93,0H268.85V40.65a18.85,18.85,0,0,1-37.7,0V0h-109l35.72,61.87a18.85,18.85,0,1,1-32.64,18.85L78.67,0H0V23C26.46,23.88,47.51,38.05,47.51,55.43Z"/><path class="cls-1" d="M500,128V125.1l-5.37,3.1Q497.29,128.07,500,128Z"/><path class="cls-2" d="M274.08,251.48h-.57c0-10.76,15.35-19.46,34.35-19.46l1.22.28c6.22-21,35.54-37.78,73.37-42.41a18,18,0,0,1,1.62-7.21,150.13,150.13,0,0,0-193.13-70.6,28.17,28.17,0,0,1,3.73,5.1c27.31.1,49.67,8.23,52.52,18.67a7.93,7.93,0,0,1,.82,3.43L149.15,139A150,150,0,1,0,400,252.24l-126,.43A9.39,9.39,0,0,1,274.08,251.48Z"/><path class="cls-2" d="M250,59.5a18.85,18.85,0,0,0,18.85-18.85V0h-37.7V40.65A18.85,18.85,0,0,0,250,59.5Z"/><path class="cls-2" d="M268.85,459.85a18.84,18.84,0,0,0-33.16-12.25c14.44,2,26.36,6.67,33.16,12.73Z"/><polygon class="cls-2" points="231.16 472.8 231.16 500 268.85 500 268.85 472.97 231.16 472.8"/><path class="cls-2" d="M59.5,248h0a18.85,18.85,0,0,0-18.85-18.85H0v37.7H40.65A18.85,18.85,0,0,0,59.5,248Z"/><path class="cls-2" d="M458.85,268.85h39.3c.63,0,1.24,0,1.85-.1V251.9l-59.88.21A18.85,18.85,0,0,0,458.85,268.85Z"/><path class="cls-2" d="M414,153h0a19,19,0,0,0,5.35,5.89,150,150,0,0,1,21-4.81c.12-13.35,23.78-24.33,54.34-25.89l5.37-3.1V81.58l-79.14,45.69A18.85,18.85,0,0,0,414,153Z"/><path class="cls-2" d="M53.89,372.69h0l.24-.06a84.54,84.54,0,0,1,11.39.77l10.8-6.23a18.86,18.86,0,0,0,6.9-25.75h0a18.85,18.85,0,0,0-25.75-6.89L37.07,346.31A48.87,48.87,0,0,1,53.89,372.69Z"/><path class="cls-2" d="M59.79,163.41a18.85,18.85,0,0,0,25.75-6.9h0a18.84,18.84,0,0,0,.58-17.75l-69.41-.22Z"/><path class="cls-2" d="M343,82.62a18.85,18.85,0,0,0,25.74-6.9L412.45,0H368.93L336.09,56.87A18.85,18.85,0,0,0,343,82.62Z"/><path class="cls-2" d="M151,87.62a18.85,18.85,0,0,0,6.9-25.75L122.19,0H78.67l46.6,80.72A18.85,18.85,0,0,0,151,87.62Z"/><path class="cls-2" d="M414.46,345.19a18.86,18.86,0,0,0,6.9,25.75L500,416.34V372.82l-59.8-34.53A18.85,18.85,0,0,0,414.46,345.19Z"/><path class="cls-2" d="M347.35,412.3h0A18.84,18.84,0,0,0,340.46,438l35.77,62h43.52L373.1,419.2A18.84,18.84,0,0,0,347.35,412.3Z"/><polygon class="cls-2" points="100.32 472.19 84.26 500 127.78 500 143.72 472.39 100.32 472.19"/><path class="cls-3" d="M440.29,154.09a150,150,0,0,0-21,4.81c-18,5.57-30.88,14-35.24,23.78a18,18,0,0,0-1.62,7.21c-37.83,4.63-67.15,21.41-73.37,42.41l-1.22-.28c-19,0-34.35,8.7-34.35,19.46h.57c1.12-9.79,16-17.52,34.27-17.52l1.22.27c6.23-20.18,35.54-36.3,73.38-40.75.11-15.83,24.14-29.28,57.85-34.41.12-13.5,26.31-24.48,59.2-25v-6q-2.72,0-5.37.18C464.07,129.76,440.41,140.74,440.29,154.09Z"/><path class="cls-3" d="M54.29,377.67l.25-.06c30,0,54.21,15.05,54.21,33.66l0,0c4.87-3.88,12.39-6.36,20.83-6.36,19.4,0,35.13,9.56,35.25,21.41a32.43,32.43,0,0,1,15.83-3.85c19.07,0,34.91,11.27,38.22,26.15l.64-.14c29.88,0,54.2,10.41,55.39,23.48H275c0-4.21-2.23-8.17-6.15-11.67-6.8-6.06-18.72-10.71-33.16-12.73a117.41,117.41,0,0,0-16.25-1.11l-.64.15c-3.31-15.51-19.18-27.24-38.29-27.24a31.71,31.71,0,0,0-15.85,4c-.12-12.34-15.87-22.3-35.32-22.3-8.44,0-16,2.58-20.87,6.63l0,0c0-16.86-18.37-30.91-42.91-34.29a84.54,84.54,0,0,0-11.39-.77l-.24.06h0a48.87,48.87,0,0,0-16.82-26.38A59.79,59.79,0,0,0,0,333v6.57C26.76,339.85,49,356.08,54.29,377.67Z"/><path class="cls-3" d="M48,61.32l-.07.22C62.53,64.42,73,72.22,73,81.41a56.19,56.19,0,0,1,12.5-1.33c27.33,0,49.54,9.39,50,21.07A55.76,55.76,0,0,1,148,99.81c21.77,0,40.29,8.23,47.16,19.73,26.1.09,47.67,7.09,52,16.31-2.85-10.44-25.21-18.57-52.52-18.67a28.17,28.17,0,0,0-3.73-5.1c-8.62-9.45-24.83-15.83-43.43-15.83A52.82,52.82,0,0,0,135,97.67c-.44-12.39-22.65-22.35-50-22.35a53.19,53.19,0,0,0-12.5,1.41c0-9.74-10.48-18-25.07-21.07l.07-.23C47.51,38.05,26.46,23.88,0,23v7.74C26.7,31.42,48,44.84,48,61.32Z"/><path class="cls-4" d="M440.8,159.07c-33.71,5.13-57.74,18.58-57.85,34.41-37.84,4.45-67.15,20.57-73.38,40.75l-1.22-.27c-18.25,0-33.15,7.73-34.27,17.52a9.39,9.39,0,0,0-.08,1.19l126-.43,40.15-.13L500,251.9V134C467.11,134.59,440.92,145.57,440.8,159.07Z"/><path class="cls-4" d="M143.72,472.39l87.43.41,37.7.17,6.15,0c0-.34,0-.67-.06-1-1.19-13.07-25.51-23.48-55.39-23.48l-.64.14c-3.31-14.88-19.15-26.15-38.22-26.15a32.43,32.43,0,0,0-15.83,3.85C164.74,414.51,149,405,129.61,405c-8.44,0-16,2.48-20.83,6.36l0,0c0-18.61-24.25-33.66-54.21-33.66l-.25.06C49,356.08,26.76,339.85,0,339.6V471.73l100.32.46Z"/><path class="cls-4" d="M86.12,138.76l63,.2,98.86.32a7.93,7.93,0,0,0-.82-3.43c-4.35-9.22-25.92-16.22-52-16.31C188.3,108,169.78,99.81,148,99.81a55.76,55.76,0,0,0-12.52,1.34c-.44-11.68-22.65-21.07-50-21.07A56.19,56.19,0,0,0,73,81.41c0-9.19-10.48-17-25.07-19.87l.07-.22C48,44.84,26.7,31.42,0,30.78v107.7l16.71.06Z"/></svg>